<svg width="59" height="38" viewBox="0 0 59 38" fill="none" xmlns="http://www.w3.org/2000/svg">
<path d="M38.0273 34.8789C38.1055 34.9961 38.1738 35.1426 38.2324 35.3184C38.291 35.4941 38.3203 35.6797 38.3203 35.875C38.3203 36.3828 38.1348 36.8223 37.7637 37.1934C37.3926 37.5645 36.9531 37.75 36.4453 37.75H1.875C1.36719 37.75 0.927734 37.5645 0.556641 37.1934C0.185547 36.8223 0 36.3828 0 35.875C0 35.6797 0.0292969 35.4941 0.0878906 35.3184C0.146484 35.1426 0.214844 34.9766 0.292969 34.8203V34.8789C1.62109 32.8477 3.21289 31.0801 5.06836 29.5762C6.92383 28.0723 8.96484 26.9102 11.1914 26.0898L11.3672 26.0312C9.45312 24.7422 7.92969 23.0723 6.79688 21.0215C5.66406 18.9707 5.09766 16.7344 5.09766 14.3125C5.09766 12.3594 5.46875 10.5234 6.21094 8.80469C6.95312 7.125 7.95898 5.65039 9.22852 4.38086C10.498 3.11133 11.9922 2.10547 13.7109 1.36328C15.3906 0.621094 17.207 0.25 19.1602 0.25C21.1133 0.25 22.9297 0.621094 24.6094 1.36328C26.3281 2.10547 27.8223 3.11133 29.0918 4.38086C30.3613 5.65039 31.3672 7.125 32.1094 8.80469C32.8516 10.5234 33.2227 12.3594 33.2227 14.3125C33.2227 16.7344 32.6562 18.9707 31.5234 21.0215C30.3906 23.0723 28.8867 24.7227 27.0117 25.9727L26.9531 26.0312C29.2578 26.8906 31.3477 28.0723 33.2227 29.5762C35.0977 31.0801 36.6797 32.8086 37.9688 34.7617L38.0273 34.8789ZM58.6523 34.8203C57.3242 32.8281 55.7324 31.0801 53.877 29.5762C52.0215 28.0723 49.9805 26.9102 47.7539 26.0898L47.5781 26.0312C49.4531 24.7422 50.957 23.082 52.0898 21.0508C53.2227 19.0195 53.7891 16.793 53.7891 14.3711C53.7891 12.418 53.418 10.582 52.6758 8.86328C51.9336 7.14453 50.9277 5.65039 49.6582 4.38086C48.3887 3.11133 46.8945 2.10547 45.1758 1.36328C43.4961 0.660156 41.6797 0.308594 39.7266 0.308594C38.5547 0.308594 37.4316 0.435547 36.3574 0.689453C35.2832 0.943359 34.2578 1.32422 33.2812 1.83203L33.3984 1.77344C33.2422 1.85156 33.1152 1.96875 33.0176 2.125C32.9199 2.28125 32.8711 2.45703 32.8711 2.65234C32.8711 2.73047 32.8906 2.81836 32.9297 2.91602C32.9688 3.01367 33.0273 3.10156 33.1055 3.17969H33.0469C34.2969 4.70312 35.2637 6.41211 35.9473 8.30664C36.6309 10.2012 36.9727 12.2031 36.9727 14.3125C36.9727 16.1875 36.6992 17.9746 36.1523 19.6738C35.6055 21.373 34.8438 22.9258 33.8672 24.332L33.9258 24.2734C33.8867 24.3516 33.8477 24.4395 33.8086 24.5371C33.7695 24.6348 33.75 24.7227 33.75 24.8008C33.75 24.957 33.7891 25.1035 33.8672 25.2402C33.9453 25.377 34.043 25.4844 34.1602 25.5625C35.5664 26.5391 36.8457 27.623 37.998 28.8145C39.1504 30.0059 40.1953 31.3047 41.1328 32.7109L41.1914 32.8281C41.4648 33.2578 41.6797 33.7266 41.8359 34.2344C41.9922 34.7422 42.0703 35.2891 42.0703 35.875C42.0703 35.9922 42.0703 36.1289 42.0703 36.2852C42.0703 36.4414 42.0508 36.5781 42.0117 36.6953V36.6367C42.0117 36.6758 42.0117 36.7051 42.0117 36.7246C42.0117 36.7441 42.0117 36.7734 42.0117 36.8125C42.0117 37.0859 42.0996 37.3105 42.2754 37.4863C42.4512 37.6621 42.6758 37.75 42.9492 37.75H57.0703C57.5 37.75 57.8809 37.623 58.2129 37.3691C58.5449 37.1152 58.7695 36.793 58.8867 36.4023V36.3438C58.9258 36.2656 58.9453 36.1875 58.9453 36.1094C58.9453 36.0312 58.9453 35.9531 58.9453 35.875C58.9453 35.6797 58.916 35.4941 58.8574 35.3184C58.7988 35.1426 58.7109 34.9766 58.5938 34.8203H58.6523Z" fill="black"/>
</svg>
