<svg width="45" height="48" viewBox="0 0 45 48" fill="none" xmlns="http://www.w3.org/2000/svg">
<path d="M41.25 0.5625H3.75C2.69531 0.5625 1.80664 0.923828 1.08398 1.64648C0.361328 2.36914 0 3.25781 0 4.3125V18.082C0 23.3555 0.9375 27.7695 2.8125 31.3242C4.72656 34.918 6.9043 37.8379 9.3457 40.084C11.7871 42.3301 14.1797 44.0195 16.5234 45.1523C18.8281 46.2461 20.4297 46.9492 21.3281 47.2617C21.4844 47.3008 21.6699 47.3398 21.8848 47.3789C22.0996 47.418 22.3047 47.4375 22.5 47.4375C22.6953 47.4375 22.9004 47.418 23.1152 47.3789C23.3301 47.3398 23.5156 47.2812 23.6719 47.2031V47.2617C24.5703 46.9492 26.1914 46.2461 28.5352 45.1523C30.8398 44.0195 33.2129 42.3301 35.6543 40.084C38.0957 37.8379 40.2734 34.918 42.1875 31.3242C44.0625 27.7305 45 23.3164 45 18.082V4.3125C45 3.25781 44.6387 2.36914 43.916 1.64648C43.1934 0.923828 42.3047 0.5625 41.25 0.5625ZM3.92578 21.1875H22.5V4.3125H41.25V18.082C41.25 18.6289 41.2402 19.1758 41.2207 19.7227C41.2012 20.2695 41.1523 20.7969 41.0742 21.3047V21.1875H22.5V43.6875C21.7578 43.4531 20.4492 42.8867 18.5742 41.9883C16.6992 41.1289 14.7363 39.8203 12.6855 38.0625C10.6348 36.3047 8.76953 34.0586 7.08984 31.3242C5.37109 28.5508 4.31641 25.1719 3.92578 21.1875Z" fill="black"/>
</svg>
