<svg width="49" height="52" viewBox="0 0 49 52" fill="none" xmlns="http://www.w3.org/2000/svg">
<path d="M41.25 10.0625H26.25V2.5625C26.25 2.05469 26.0645 1.61523 25.6934 1.24414C25.3223 0.873047 24.8828 0.6875 24.375 0.6875C23.8672 0.6875 23.4277 0.873047 23.0566 1.24414C22.6855 1.61523 22.5 2.05469 22.5 2.5625V10.0625H7.5C5.42969 10.0625 3.66211 10.7949 2.19727 12.2598C0.732422 13.7246 0 15.4922 0 17.5625V43.8125C0 45.8828 0.732422 47.6504 2.19727 49.1152C3.66211 50.5801 5.42969 51.3125 7.5 51.3125H41.25C43.3203 51.3125 45.0879 50.5801 46.5527 49.1152C48.0176 47.6504 48.75 45.8828 48.75 43.8125V17.5625C48.75 15.4922 48.0176 13.7246 46.5527 12.2598C45.0879 10.7949 43.3203 10.0625 41.25 10.0625ZM34.6875 21.3125C35.4688 21.3125 36.1328 21.5859 36.6797 22.1328C37.2266 22.6797 37.5 23.3438 37.5 24.125C37.5 24.9062 37.2266 25.5703 36.6797 26.1172C36.1328 26.6641 35.4688 26.9375 34.6875 26.9375C33.9062 26.9375 33.2422 26.6641 32.6953 26.1172C32.1484 25.5703 31.875 24.9062 31.875 24.125C31.875 23.3438 32.1484 22.6797 32.6953 22.1328C33.2422 21.5859 33.9062 21.3125 34.6875 21.3125ZM16.875 41.9375H13.125C12.0703 41.9375 11.1816 41.5762 10.459 40.8535C9.73633 40.1309 9.375 39.2422 9.375 38.1875C9.375 37.1328 9.73633 36.2441 10.459 35.5215C11.1816 34.7988 12.0703 34.4375 13.125 34.4375H16.875V41.9375ZM14.0625 26.9375C13.2812 26.9375 12.6172 26.6641 12.0703 26.1172C11.5234 25.5703 11.25 24.9062 11.25 24.125C11.25 23.3438 11.5234 22.6797 12.0703 22.1328C12.6172 21.5859 13.2812 21.3125 14.0625 21.3125C14.8438 21.3125 15.5078 21.5859 16.0547 22.1328C16.6016 22.6797 16.875 23.3438 16.875 24.125C16.875 24.9062 16.6016 25.5703 16.0547 26.1172C15.5078 26.6641 14.8438 26.9375 14.0625 26.9375ZM28.125 41.9375H20.625V34.4375H28.125V41.9375ZM35.625 41.9375H31.875V34.4375H35.625C36.6797 34.4375 37.5684 34.7988 38.291 35.5215C39.0137 36.2441 39.375 37.1328 39.375 38.1875C39.375 39.2422 39.0137 40.1309 38.291 40.8535C37.5684 41.5762 36.6797 41.9375 35.625 41.9375Z" fill="black"/>
</svg>
