<svg width="45" height="52" viewBox="0 0 45 52" fill="none" xmlns="http://www.w3.org/2000/svg">
<path d="M41.25 17.5625H33.75V11.9375C33.75 8.8125 32.6562 6.15625 30.4688 3.96875C28.2812 1.78125 25.625 0.6875 22.5 0.6875C19.375 0.6875 16.7188 1.78125 14.5312 3.96875C12.3438 6.15625 11.25 8.8125 11.25 11.9375V17.5625H3.75C2.69531 17.5625 1.80664 17.9238 1.08398 18.6465C0.361328 19.3691 0 20.2578 0 21.3125V47.5625C0 48.6172 0.361328 49.5059 1.08398 50.2285C1.80664 50.9512 2.69531 51.3125 3.75 51.3125H41.25C42.3047 51.3125 43.1934 50.9512 43.916 50.2285C44.6387 49.5059 45 48.6172 45 47.5625V21.3125C45 20.2578 44.6387 19.3691 43.916 18.6465C43.1934 17.9238 42.3047 17.5625 41.25 17.5625ZM24.375 36.0195V41.9375C24.375 42.4453 24.1895 42.8848 23.8184 43.2559C23.4473 43.627 23.0078 43.8125 22.5 43.8125C21.9922 43.8125 21.5527 43.627 21.1816 43.2559C20.8105 42.8848 20.625 42.4453 20.625 41.9375V36.0195C19.5312 35.5898 18.6328 34.8965 17.9297 33.9395C17.2266 32.9824 16.875 31.8984 16.875 30.6875C16.875 29.125 17.4219 27.7969 18.5156 26.7031C19.6094 25.6094 20.9375 25.0625 22.5 25.0625C24.0625 25.0625 25.3906 25.6094 26.4844 26.7031C27.5781 27.7969 28.125 29.125 28.125 30.6875C28.125 31.8984 27.7734 32.9824 27.0703 33.9395C26.3672 34.8965 25.4883 35.5703 24.4336 35.9609L24.375 36.0195ZM30 17.5625H15V11.9375C15 9.86719 15.7324 8.09961 17.1973 6.63477C18.6621 5.16992 20.4297 4.4375 22.5 4.4375C24.5703 4.4375 26.3379 5.16992 27.8027 6.63477C29.2676 8.09961 30 9.86719 30 11.9375V17.5625Z" fill="black"/>
</svg>
