<svg width="55" height="46" viewBox="0 0 55 46" fill="none" xmlns="http://www.w3.org/2000/svg">
<path d="M46.875 11.2812V10.3438C46.875 7.49219 45.8691 5.06055 43.8574 3.04883C41.8457 1.03711 39.4141 0.03125 36.5625 0.03125C35.1562 0.03125 33.8281 0.294922 32.5781 0.822266C31.3281 1.34961 30.2539 2.08203 29.3555 3.01953C29.2383 3.09766 29.1602 3.19531 29.1211 3.3125C29.082 3.42969 29.0625 3.54688 29.0625 3.66406V24.4648C29.0625 24.6992 29.1504 24.9141 29.3262 25.1094C29.502 25.3047 29.7266 25.4023 30 25.4023C30.0781 25.4023 30.166 25.3828 30.2637 25.3438C30.3613 25.3047 30.4492 25.2656 30.5273 25.2266C31.3477 24.6797 32.2656 24.25 33.2812 23.9375C34.2969 23.625 35.3711 23.4688 36.5039 23.4688C37.0117 23.4688 37.4512 23.6445 37.8223 23.9961C38.1934 24.3477 38.3984 24.7578 38.4375 25.2266C38.4375 25.2656 38.4375 25.2949 38.4375 25.3145C38.4375 25.334 38.4375 25.3438 38.4375 25.3438C38.4375 25.8516 38.252 26.291 37.8809 26.6621C37.5098 27.0332 37.0703 27.2188 36.5625 27.2188C34.4922 27.2188 32.7246 27.9512 31.2598 29.416C29.7949 30.8809 29.0625 32.6484 29.0625 34.7188V42.6875C29.0625 42.8047 29.0918 42.9316 29.1504 43.0684C29.209 43.2051 29.2969 43.3125 29.4141 43.3906C30.3906 44.2109 31.4844 44.8457 32.6953 45.2949C33.9062 45.7441 35.1953 45.9688 36.5625 45.9688C38.8281 45.9688 40.8691 45.3633 42.6855 44.1523C44.502 42.9414 45.8594 41.3789 46.7578 39.4648L46.8164 39.3477C46.8164 39.3086 46.8262 39.2598 46.8457 39.2012C46.8652 39.1426 46.875 39.0742 46.875 38.9961C46.875 38.7227 46.7871 38.498 46.6113 38.3223C46.4355 38.1465 46.2109 38.0586 45.9375 38.0586C45.8984 38.0586 45.8691 38.0586 45.8496 38.0586C45.8301 38.0586 45.8008 38.0586 45.7617 38.0586C45.2148 38.1758 44.6387 38.2734 44.0332 38.3516C43.4277 38.4297 42.8125 38.4688 42.1875 38.4688H40.3711C39.8633 38.4688 39.4238 38.3027 39.0527 37.9707C38.6816 37.6387 38.4766 37.2188 38.4375 36.7109C38.4375 36.7109 38.4375 36.7012 38.4375 36.6816C38.4375 36.6621 38.4375 36.6328 38.4375 36.5938C38.4375 36.0859 38.623 35.6465 38.9941 35.2754C39.3652 34.9043 39.8047 34.7188 40.3125 34.7188H42.1875C43.2422 34.7188 44.248 34.5918 45.2051 34.3379C46.1621 34.084 47.0508 33.7422 47.8711 33.3125H47.8125C49.7656 32.2969 51.3477 30.832 52.5586 28.918C53.7695 27.0039 54.375 24.875 54.375 22.5312C54.375 19.9922 53.6816 17.7168 52.2949 15.7051C50.9082 13.6934 49.1211 12.2383 46.9336 11.3398L46.875 11.2812ZM44.0625 19.7188H43.125C40.7812 19.7188 38.7891 18.8984 37.1484 17.2578C35.5078 15.6172 34.6875 13.625 34.6875 11.2812V10.3438C34.6875 9.83594 34.873 9.39648 35.2441 9.02539C35.6152 8.6543 36.0547 8.46875 36.5625 8.46875C37.0703 8.46875 37.5098 8.6543 37.8809 9.02539C38.252 9.39648 38.4375 9.83594 38.4375 10.3438V11.2812C38.4375 12.5703 38.8965 13.6738 39.8145 14.5918C40.7324 15.5098 41.8359 15.9688 43.125 15.9688H44.0625C44.5703 15.9688 45.0098 16.1543 45.3809 16.5254C45.752 16.8965 45.9375 17.3359 45.9375 17.8438C45.9375 18.3516 45.752 18.791 45.3809 19.1621C45.0098 19.5332 44.5703 19.7188 44.0625 19.7188ZM17.8125 0.03125C14.9609 0.03125 12.5293 1.03711 10.5176 3.04883C8.50586 5.06055 7.5 7.49219 7.5 10.3438V11.2812C5.27344 12.2188 3.4668 13.6934 2.08008 15.7051C0.693359 17.7168 0 19.9922 0 22.5312C0 24.875 0.595703 27.0039 1.78711 28.918C2.97852 30.832 4.55078 32.2969 6.50391 33.3125H6.5625C7.38281 33.7812 8.26172 34.1328 9.19922 34.3672C10.1367 34.6016 11.1328 34.7188 12.1875 34.7188H14.0039C14.5117 34.7188 14.9512 34.8848 15.3223 35.2168C15.6934 35.5488 15.8984 35.9688 15.9375 36.4766C15.9375 36.4766 15.9375 36.4863 15.9375 36.5059C15.9375 36.5254 15.9375 36.5547 15.9375 36.5938C15.9375 37.1016 15.752 37.541 15.3809 37.9121C15.0098 38.2832 14.5703 38.4688 14.0625 38.4688H12.1875C11.5625 38.4688 10.9375 38.4297 10.3125 38.3516C9.6875 38.2734 9.08203 38.1758 8.49609 38.0586H8.61328C8.57422 38.0586 8.54492 38.0586 8.52539 38.0586C8.50586 38.0586 8.47656 38.0586 8.4375 38.0586C8.16406 38.0586 7.93945 38.1465 7.76367 38.3223C7.58789 38.498 7.5 38.7227 7.5 38.9961C7.5 39.0352 7.50977 39.0938 7.5293 39.1719C7.54883 39.25 7.55859 39.3086 7.55859 39.3477C8.45703 41.3398 9.82422 42.9414 11.6602 44.1523C13.4961 45.3633 15.5469 45.9688 17.8125 45.9688C19.1797 45.9688 20.4688 45.7344 21.6797 45.2656C22.8906 44.7969 23.9844 44.1719 24.9609 43.3906C25.0781 43.3125 25.166 43.2051 25.2246 43.0684C25.2832 42.9316 25.3125 42.8047 25.3125 42.6875V34.7188C25.3125 32.6484 24.5801 30.8809 23.1152 29.416C21.6504 27.9512 19.8828 27.2188 17.8125 27.2188C17.3047 27.2188 16.8652 27.0332 16.4941 26.6621C16.123 26.291 15.9375 25.8516 15.9375 25.3438C15.9375 25.3438 15.9375 25.334 15.9375 25.3145C15.9375 25.2949 15.9375 25.2656 15.9375 25.2266C15.9766 24.7578 16.1816 24.3477 16.5527 23.9961C16.9238 23.6445 17.3633 23.4688 17.8711 23.4688C19.0039 23.4688 20.0781 23.625 21.0938 23.9375C22.1094 24.25 23.0469 24.6992 23.9062 25.2852L23.8477 25.2266C23.9258 25.2656 24.0137 25.3047 24.1113 25.3438C24.209 25.3828 24.2969 25.4023 24.375 25.4023C24.6484 25.4023 24.873 25.3047 25.0488 25.1094C25.2246 24.9141 25.3125 24.6992 25.3125 24.4648V3.66406C25.3125 3.54688 25.293 3.42969 25.2539 3.3125C25.2148 3.19531 25.1367 3.09766 25.0195 3.01953C24.1211 2.08203 23.0469 1.34961 21.7969 0.822266C20.5469 0.294922 19.2188 0.03125 17.8125 0.03125ZM19.6875 11.2812C19.6875 13.625 18.8672 15.6172 17.2266 17.2578C15.5859 18.8984 13.5938 19.7188 11.25 19.7188H10.3125C9.80469 19.7188 9.36523 19.5332 8.99414 19.1621C8.62305 18.791 8.4375 18.3516 8.4375 17.8438C8.4375 17.3359 8.62305 16.8965 8.99414 16.5254C9.36523 16.1543 9.80469 15.9688 10.3125 15.9688H11.25C12.5391 15.9688 13.6426 15.5098 14.5605 14.5918C15.4785 13.6738 15.9375 12.5703 15.9375 11.2812V10.3438C15.9375 9.83594 16.123 9.39648 16.4941 9.02539C16.8652 8.6543 17.3047 8.46875 17.8125 8.46875C18.3203 8.46875 18.7598 8.6543 19.1309 9.02539C19.502 9.39648 19.6875 9.83594 19.6875 10.3438V11.2812Z" fill="black"/>
</svg>
