<svg width="246" height="43" viewBox="0 0 246 43" fill="none" xmlns="http://www.w3.org/2000/svg">
<path d="M42.4383 11.4594C42.4383 14.2232 42.4383 18.7943 42.4383 22.0541C42.4383 33.2479 33.1577 42.3223 21.7095 42.3223C10.2613 42.3223 0.980712 33.2479 0.980712 22.0541C0.980712 10.8603 10.2613 1.78594 21.7095 1.78594C26.433 1.78594 30.7874 3.33069 34.2733 5.9317C36.5001 4.54978 42.4383 0.86466 42.4383 0.86466L42.4383 7.31362L30.5252 15.3986L32.545 18.369L27.5984 21.8238L25.76 18.7343L13.7007 27.1211L10.4029 22.5147C10.4029 22.5147 25.2045 12.5901 29.7184 9.56345C27.3979 8.138 24.6522 7.31362 21.7095 7.31362C13.3836 7.31362 6.63402 13.9132 6.63402 22.0541C6.63402 30.195 13.3836 36.7946 21.7095 36.7946C30.0355 36.7946 36.785 30.195 36.785 22.0541C35.3717 22.9754 25.9495 29.885 25.9495 29.885L22.6517 25.2786L27.5984 21.8238L32.545 18.369L42.4383 11.4594Z" fill="url(#paint0_linear_27_293)"/>
<path d="M56.068 33.5938L60.2105 8.64121H77.7553L76.8293 14.0996H66.0588L65.3765 18.3883H75.0748L74.1489 23.8467H64.4505L62.8422 33.5938H56.068ZM87.0698 8.64121L82.9273 33.5938H76.2018L80.3444 8.64121H87.0698ZM91.52 33.8862C90.3341 33.8862 89.3147 33.6912 88.4619 33.3013C87.6171 32.9033 86.9998 32.3023 86.6099 31.4981C86.2281 30.6859 86.1429 29.6624 86.354 28.4278C86.5246 27.4044 86.8455 26.5312 87.3166 25.8083C87.7877 25.0854 88.3725 24.4924 89.071 24.0294C89.7696 23.5664 90.5534 23.2131 91.4225 22.9694C92.2998 22.7176 93.2257 22.5552 94.2005 22.4821C95.2564 22.4008 96.1133 22.2993 96.7712 22.1775C97.4292 22.0556 97.9206 21.8891 98.2455 21.6779C98.5704 21.4668 98.7653 21.1825 98.8303 20.8251V20.7763C98.9034 20.289 98.7735 19.9153 98.4404 19.6554C98.1155 19.3955 97.6607 19.2655 97.0758 19.2655C96.4423 19.2655 95.894 19.4036 95.431 19.6798C94.9762 19.956 94.6634 20.3864 94.4929 20.9713H88.3035C88.5634 19.8341 89.0954 18.7863 89.8995 17.8278C90.7118 16.8613 91.788 16.0896 93.1283 15.5129C94.4766 14.9281 96.0849 14.6357 97.9531 14.6357C99.2852 14.6357 100.455 14.7941 101.462 15.1108C102.469 15.4195 103.302 15.8541 103.96 16.4145C104.626 16.9668 105.093 17.6167 105.361 18.3639C105.637 19.1031 105.702 19.9072 105.556 20.7763L103.411 33.5938H97.1246L97.5632 30.962H97.417C96.9296 31.6606 96.3814 32.2251 95.7722 32.6556C95.1711 33.0861 94.5132 33.3988 93.7984 33.5938C93.0917 33.7887 92.3323 33.8862 91.52 33.8862ZM94.4441 29.6462C94.9477 29.6462 95.4432 29.5406 95.9306 29.3294C96.4179 29.1182 96.8362 28.8136 97.1855 28.4156C97.5348 28.0176 97.7581 27.5343 97.8556 26.9657L98.0993 25.4062C97.9206 25.4793 97.7216 25.5483 97.5023 25.6133C97.2911 25.6702 97.0677 25.727 96.8322 25.7839C96.6047 25.8408 96.3611 25.8936 96.1011 25.9423C95.8493 25.991 95.5894 26.0398 95.3214 26.0885C94.7853 26.1697 94.3345 26.3037 93.969 26.4906C93.6034 26.6693 93.3192 26.8926 93.1161 27.1607C92.913 27.4206 92.7871 27.713 92.7384 28.0379C92.6653 28.5496 92.7831 28.9476 93.0917 29.2319C93.4085 29.5081 93.8593 29.6462 94.4441 29.6462ZM125.778 20.9713H119.735C119.767 20.5814 119.698 20.2484 119.528 19.9722C119.357 19.696 119.117 19.4848 118.809 19.3386C118.508 19.1924 118.167 19.1193 117.785 19.1193C117.119 19.1193 116.514 19.2696 115.97 19.5701C115.426 19.8625 115.121 20.2484 115.056 20.7276C115.016 20.9144 115.076 21.0891 115.239 21.2515C115.401 21.414 115.828 21.5642 116.518 21.7023L120.222 22.3846C122.074 22.7257 123.422 23.3471 124.267 24.2487C125.12 25.1422 125.429 26.324 125.193 27.7942C124.974 29.0695 124.413 30.166 123.512 31.0839C122.61 32.0017 121.465 32.7084 120.076 33.2039C118.695 33.6912 117.168 33.9349 115.495 33.9349C112.546 33.9349 110.337 33.346 108.867 32.1682C107.405 30.9905 106.739 29.4512 106.869 27.5506H113.399C113.415 28.1597 113.618 28.6187 114.008 28.9273C114.406 29.2279 114.934 29.3863 115.592 29.4025C116.307 29.4269 116.932 29.2847 117.469 28.9761C118.005 28.6593 118.305 28.2653 118.37 27.7942C118.395 27.5262 118.277 27.3231 118.017 27.185C117.765 27.047 117.282 26.9089 116.567 26.7708L113.35 26.186C111.498 25.8529 110.15 25.1869 109.305 24.1878C108.461 23.1806 108.168 21.8972 108.428 20.3377C108.639 19.095 109.143 18.0512 109.939 17.2065C110.743 16.3617 111.799 15.7241 113.107 15.2936C114.414 14.855 115.925 14.6357 117.639 14.6357C120.441 14.6357 122.561 15.2002 123.999 16.3292C125.445 17.4501 126.038 18.9975 125.778 20.9713ZM135.324 23.0669L133.57 33.5938H126.844L130.987 8.64121H137.468L135.86 18.437H136.055C136.664 17.243 137.517 16.313 138.614 15.6469C139.71 14.9728 140.953 14.6357 142.342 14.6357C143.658 14.6357 144.754 14.9362 145.632 15.5373C146.509 16.1383 147.13 16.9668 147.496 18.0228C147.861 19.0787 147.93 20.289 147.703 21.6536L145.705 33.5938H138.979L140.734 23.0669C140.88 22.1409 140.762 21.414 140.38 20.886C140.007 20.358 139.393 20.094 138.541 20.094C137.988 20.094 137.485 20.2159 137.03 20.4596C136.583 20.6951 136.209 21.0363 135.909 21.483C135.616 21.9216 135.421 22.4496 135.324 23.0669ZM181.568 17.9984H174.794C174.842 17.4217 174.81 16.9019 174.696 16.4389C174.582 15.9759 174.387 15.5779 174.111 15.2449C173.835 14.9037 173.474 14.6438 173.027 14.4651C172.58 14.2864 172.048 14.197 171.431 14.197C170.245 14.197 169.185 14.4935 168.251 15.0865C167.317 15.6713 166.541 16.512 165.924 17.6085C165.306 18.697 164.868 19.9966 164.608 21.5074C164.38 22.9694 164.372 24.1838 164.584 25.1503C164.803 26.1169 165.229 26.8398 165.863 27.3191C166.505 27.7983 167.337 28.0379 168.361 28.0379C169.043 28.0379 169.668 27.9567 170.237 27.7942C170.814 27.6318 171.325 27.4003 171.772 27.0998C172.227 26.7911 172.613 26.4256 172.929 26.0032C173.254 25.5727 173.502 25.0975 173.673 24.5777H180.496C180.236 25.6336 179.773 26.7139 179.107 27.8186C178.441 28.9151 177.58 29.9264 176.524 30.8524C175.468 31.7702 174.225 32.5134 172.795 33.082C171.366 33.6506 169.758 33.9349 167.971 33.9349C165.631 33.9349 163.613 33.4232 161.915 32.3997C160.226 31.3763 158.999 29.8817 158.236 27.9161C157.48 25.9504 157.33 23.5543 157.785 20.7276C158.24 17.9984 159.137 15.7119 160.478 13.8681C161.818 12.0243 163.446 10.6353 165.363 9.7012C167.28 8.76711 169.319 8.30006 171.48 8.30006C173.112 8.30006 174.574 8.51531 175.866 8.94581C177.165 9.3763 178.258 10.0058 179.143 10.8343C180.037 11.6547 180.695 12.6659 181.117 13.8681C181.539 15.0702 181.69 16.447 181.568 17.9984ZM187.346 33.8862C186.16 33.8862 185.141 33.6912 184.288 33.3013C183.443 32.9033 182.826 32.3023 182.436 31.4981C182.054 30.6859 181.969 29.6624 182.18 28.4278C182.351 27.4044 182.671 26.5312 183.143 25.8083C183.614 25.0854 184.199 24.4924 184.897 24.0294C185.596 23.5664 186.379 23.2131 187.249 22.9694C188.126 22.7176 189.052 22.5552 190.026 22.4821C191.082 22.4008 191.939 22.2993 192.597 22.1775C193.255 22.0556 193.747 21.8891 194.072 21.6779C194.396 21.4668 194.591 21.1825 194.656 20.8251V20.7763C194.729 20.289 194.599 19.9153 194.266 19.6554C193.942 19.3955 193.487 19.2655 192.902 19.2655C192.268 19.2655 191.72 19.4036 191.257 19.6798C190.802 19.956 190.489 20.3864 190.319 20.9713H184.129C184.389 19.8341 184.921 18.7863 185.726 17.8278C186.538 16.8613 187.614 16.0896 188.954 15.5129C190.303 14.9281 191.911 14.6357 193.779 14.6357C195.111 14.6357 196.281 14.7941 197.288 15.1108C198.295 15.4195 199.128 15.8541 199.786 16.4145C200.452 16.9668 200.919 17.6167 201.187 18.3639C201.463 19.1031 201.528 19.9072 201.382 20.7763L199.237 33.5938H192.951L193.389 30.962H193.243C192.756 31.6606 192.207 32.2251 191.598 32.6556C190.997 33.0861 190.339 33.3988 189.624 33.5938C188.918 33.7887 188.158 33.8862 187.346 33.8862ZM190.27 29.6462C190.774 29.6462 191.269 29.5406 191.757 29.3294C192.244 29.1182 192.662 28.8136 193.012 28.4156C193.361 28.0176 193.584 27.5343 193.682 26.9657L193.925 25.4062C193.747 25.4793 193.548 25.5483 193.328 25.6133C193.117 25.6702 192.894 25.727 192.658 25.7839C192.431 25.8408 192.187 25.8936 191.927 25.9423C191.675 25.991 191.415 26.0398 191.147 26.0885C190.611 26.1697 190.161 26.3037 189.795 26.4906C189.429 26.6693 189.145 26.8926 188.942 27.1607C188.739 27.4206 188.613 27.713 188.564 28.0379C188.491 28.5496 188.609 28.9476 188.918 29.2319C189.235 29.5081 189.685 29.6462 190.27 29.6462ZM221.604 20.9713H215.561C215.593 20.5814 215.524 20.2484 215.354 19.9722C215.183 19.696 214.944 19.4848 214.635 19.3386C214.334 19.1924 213.993 19.1193 213.611 19.1193C212.945 19.1193 212.34 19.2696 211.796 19.5701C211.252 19.8625 210.947 20.2484 210.882 20.7276C210.842 20.9144 210.903 21.0891 211.065 21.2515C211.227 21.414 211.654 21.5642 212.344 21.7023L216.048 22.3846C217.9 22.7257 219.248 23.3471 220.093 24.2487C220.946 25.1422 221.255 26.324 221.019 27.7942C220.8 29.0695 220.239 30.166 219.338 31.0839C218.436 32.0017 217.291 32.7084 215.902 33.2039C214.521 33.6912 212.994 33.9349 211.321 33.9349C208.372 33.9349 206.163 33.346 204.693 32.1682C203.231 30.9905 202.565 29.4512 202.695 27.5506H209.225C209.241 28.1597 209.445 28.6187 209.834 28.9273C210.232 29.2279 210.76 29.3863 211.418 29.4025C212.133 29.4269 212.759 29.2847 213.295 28.9761C213.831 28.6593 214.131 28.2653 214.196 27.7942C214.221 27.5262 214.103 27.3231 213.843 27.185C213.591 27.047 213.108 26.9089 212.393 26.7708L209.176 26.186C207.325 25.8529 205.976 25.1869 205.131 24.1878C204.287 23.1806 203.994 21.8972 204.254 20.3377C204.465 19.095 204.969 18.0512 205.765 17.2065C206.569 16.3617 207.625 15.7241 208.933 15.2936C210.241 14.855 211.751 14.6357 213.465 14.6357C216.267 14.6357 218.387 15.2002 219.825 16.3292C221.271 17.4501 221.864 18.9975 221.604 20.9713ZM231.15 23.0669L229.396 33.5938H222.67L226.813 8.64121H233.294L231.686 18.437H231.881C232.49 17.243 233.343 16.313 234.44 15.6469C235.536 14.9728 236.779 14.6357 238.168 14.6357C239.484 14.6357 240.58 14.9362 241.458 15.5373C242.335 16.1383 242.956 16.9668 243.322 18.0228C243.687 19.0787 243.756 20.289 243.529 21.6536L241.531 33.5938H234.805L236.56 23.0669C236.706 22.1409 236.588 21.414 236.206 20.886C235.833 20.358 235.219 20.094 234.367 20.094C233.814 20.094 233.311 20.2159 232.856 20.4596C232.409 20.6951 232.035 21.0363 231.735 21.483C231.442 21.9216 231.248 22.4496 231.15 23.0669Z" fill="black"/>
<defs>
<linearGradient id="paint0_linear_27_293" x1="4.27848" y1="30.9393" x2="41.866" y2="3.88762" gradientUnits="userSpaceOnUse">
<stop stop-color="#29D278"/>
<stop offset="0.41656" stop-color="#28B3CF"/>
<stop offset="1" stop-color="#2444F3"/>
</linearGradient>
</defs>
</svg>
