<svg width="265" height="44" viewBox="0 0 265 44" fill="none" xmlns="http://www.w3.org/2000/svg">
<path d="M1.41552e-06 11.3667C1.28876e-06 14.2667 1.0791e-06 19.063 9.29596e-07 22.4833C4.16194e-07 34.2286 9.7378 43.75 21.75 43.75C33.7622 43.75 43.5 34.2286 43.5 22.4833C43.5 10.7381 33.7622 1.21667 21.75 1.21667C16.7939 1.21667 12.2249 2.83752 8.5673 5.56667C6.23077 4.11667 1.90145e-06 0.249998 1.90145e-06 0.249998L1.60567e-06 7.01666L12.5 15.5L10.3807 18.6167L15.571 22.2417L17.5 19L30.1534 27.8L33.6136 22.9667C33.6136 22.9667 18.0829 12.5531 13.3466 9.37733C15.7813 7.88166 18.6624 7.01667 21.75 7.01667C30.4861 7.01667 37.5682 13.9413 37.5682 22.4833C37.5682 31.0253 30.4861 37.95 21.75 37.95C13.0139 37.95 5.93182 31.0253 5.93182 22.4833C7.41477 23.45 17.3011 30.7 17.3011 30.7L19.0313 28.2833L20.7614 25.8667L15.571 22.2417L10.3807 18.6167L1.41552e-06 11.3667Z" fill="url(#paint0_linear_3_56)"/>
<path d="M57.8011 35L62.1477 8.81818H80.5568L79.5852 14.5455H68.2841L67.5682 19.0455H77.7443L76.7727 24.7727H66.5966L64.9091 35H57.8011ZM90.3303 8.81818L85.9837 35H78.9268L83.2734 8.81818H90.3303ZM94.9996 35.3068C93.7553 35.3068 92.6857 35.1023 91.7908 34.6932C90.9045 34.2756 90.2567 33.6449 89.8477 32.8011C89.4471 31.9489 89.3576 30.875 89.5792 29.5795C89.7582 28.5057 90.0948 27.5895 90.5891 26.831C91.0835 26.0724 91.6971 25.4503 92.43 24.9645C93.163 24.4787 93.9854 24.108 94.8974 23.8523C95.8178 23.5881 96.7894 23.4176 97.8121 23.3409C98.9201 23.2557 99.8192 23.1491 100.51 23.0213C101.2 22.8935 101.716 22.7187 102.056 22.4972C102.397 22.2756 102.602 21.9773 102.67 21.6023V21.5511C102.747 21.0398 102.61 20.6477 102.261 20.375C101.92 20.1023 101.443 19.9659 100.829 19.9659C100.164 19.9659 99.5891 20.1108 99.1033 20.4006C98.6261 20.6903 98.2979 21.142 98.119 21.7557H91.6246C91.8974 20.5625 92.4556 19.4631 93.2994 18.4574C94.1516 17.4432 95.2809 16.6335 96.6871 16.0284C98.1019 15.4148 99.7894 15.108 101.75 15.108C103.147 15.108 104.375 15.2741 105.431 15.6065C106.488 15.9304 107.362 16.3864 108.052 16.9744C108.751 17.554 109.241 18.2358 109.522 19.0199C109.812 19.7955 109.88 20.6392 109.727 21.5511L107.477 35H100.88L101.341 32.2386H101.187C100.676 32.9716 100.1 33.5639 99.4613 34.0156C98.8306 34.4673 98.1403 34.7955 97.3903 35C96.6488 35.2045 95.8519 35.3068 94.9996 35.3068ZM98.0678 30.858C98.5962 30.858 99.1161 30.7472 99.6275 30.5256C100.139 30.304 100.578 29.9844 100.944 29.5668C101.311 29.1491 101.545 28.642 101.647 28.0455L101.903 26.4091C101.716 26.4858 101.507 26.5582 101.277 26.6264C101.055 26.6861 100.821 26.7457 100.574 26.8054C100.335 26.8651 100.079 26.9205 99.8065 26.9716C99.5423 27.0227 99.2695 27.0739 98.9883 27.125C98.4258 27.2102 97.9528 27.3509 97.5692 27.5469C97.1857 27.7344 96.8874 27.9688 96.6744 28.25C96.4613 28.5227 96.3292 28.8295 96.2781 29.1705C96.2013 29.7074 96.3249 30.125 96.6488 30.4233C96.9812 30.7131 97.4542 30.858 98.0678 30.858ZM130.945 21.7557H124.604C124.638 21.3466 124.566 20.9972 124.387 20.7074C124.208 20.4176 123.957 20.196 123.633 20.0426C123.317 19.8892 122.96 19.8125 122.559 19.8125C121.86 19.8125 121.225 19.9702 120.654 20.2855C120.083 20.5923 119.763 20.9972 119.695 21.5C119.653 21.696 119.717 21.8793 119.887 22.0497C120.058 22.2202 120.505 22.3778 121.229 22.5227L125.116 23.2386C127.059 23.5966 128.474 24.2486 129.36 25.1946C130.255 26.1321 130.579 27.3722 130.332 28.9148C130.102 30.2528 129.513 31.4034 128.567 32.3665C127.621 33.3295 126.42 34.071 124.962 34.5909C123.513 35.1023 121.911 35.358 120.156 35.358C117.062 35.358 114.744 34.7401 113.201 33.5043C111.667 32.2685 110.968 30.6534 111.104 28.6591H117.957C117.974 29.2983 118.187 29.7798 118.596 30.1037C119.013 30.419 119.567 30.5852 120.258 30.6023C121.008 30.6278 121.664 30.4787 122.227 30.1548C122.789 29.8224 123.104 29.4091 123.173 28.9148C123.198 28.6335 123.075 28.4205 122.802 28.2756C122.538 28.1307 122.031 27.9858 121.281 27.8409L117.906 27.2273C115.962 26.8778 114.548 26.179 113.661 25.1307C112.775 24.0739 112.468 22.7273 112.741 21.0909C112.962 19.7869 113.491 18.6918 114.326 17.8054C115.17 16.919 116.278 16.25 117.65 15.7983C119.022 15.3381 120.607 15.108 122.406 15.108C125.346 15.108 127.57 15.7003 129.079 16.8849C130.596 18.0611 131.218 19.6847 130.945 21.7557ZM140.962 23.9545L139.121 35H132.064L136.411 8.81818H143.212L141.524 19.0966H141.729C142.368 17.8437 143.263 16.8679 144.413 16.169C145.564 15.4616 146.868 15.108 148.325 15.108C149.706 15.108 150.857 15.4233 151.777 16.054C152.697 16.6847 153.349 17.554 153.733 18.6619C154.116 19.7699 154.189 21.0398 153.95 22.4716L151.854 35H144.797L146.638 23.9545C146.791 22.983 146.668 22.2202 146.267 21.6662C145.875 21.1122 145.232 20.8352 144.337 20.8352C143.757 20.8352 143.229 20.9631 142.751 21.2188C142.283 21.4659 141.891 21.8239 141.575 22.2926C141.268 22.7528 141.064 23.3068 140.962 23.9545ZM189.484 18.6364H182.376C182.427 18.0312 182.393 17.4858 182.273 17C182.154 16.5142 181.95 16.0966 181.66 15.7472C181.37 15.3892 180.991 15.1165 180.522 14.929C180.053 14.7415 179.495 14.6477 178.847 14.6477C177.603 14.6477 176.491 14.9588 175.511 15.581C174.531 16.1946 173.717 17.0767 173.069 18.2273C172.421 19.3693 171.961 20.733 171.688 22.3182C171.45 23.8523 171.441 25.1264 171.663 26.1406C171.893 27.1548 172.34 27.9134 173.005 28.4162C173.678 28.919 174.552 29.1705 175.626 29.1705C176.342 29.1705 176.998 29.0852 177.594 28.9148C178.2 28.7443 178.737 28.5014 179.205 28.1861C179.683 27.8622 180.087 27.4787 180.42 27.0355C180.761 26.5838 181.021 26.0852 181.2 25.5398H188.359C188.086 26.6477 187.6 27.7812 186.901 28.9403C186.202 30.0909 185.299 31.152 184.191 32.1236C183.083 33.0866 181.779 33.8665 180.279 34.4631C178.779 35.0597 177.092 35.358 175.217 35.358C172.762 35.358 170.644 34.821 168.863 33.7472C167.09 32.6733 165.803 31.1051 165.002 29.0426C164.21 26.9801 164.052 24.4659 164.529 21.5C165.006 18.6364 165.948 16.2372 167.354 14.3026C168.761 12.3679 170.469 10.9105 172.481 9.9304C174.492 8.95028 176.631 8.46023 178.898 8.46023C180.612 8.46023 182.146 8.68608 183.501 9.13778C184.864 9.58949 186.011 10.25 186.94 11.1193C187.877 11.9801 188.567 13.0412 189.011 14.3026C189.454 15.5639 189.612 17.0085 189.484 18.6364ZM195.547 35.3068C194.302 35.3068 193.233 35.1023 192.338 34.6932C191.451 34.2756 190.804 33.6449 190.395 32.8011C189.994 31.9489 189.904 30.875 190.126 29.5795C190.305 28.5057 190.642 27.5895 191.136 26.831C191.63 26.0724 192.244 25.4503 192.977 24.9645C193.71 24.4787 194.532 24.108 195.444 23.8523C196.365 23.5881 197.336 23.4176 198.359 23.3409C199.467 23.2557 200.366 23.1491 201.056 23.0213C201.747 22.8935 202.262 22.7187 202.603 22.4972C202.944 22.2756 203.149 21.9773 203.217 21.6023V21.5511C203.294 21.0398 203.157 20.6477 202.808 20.375C202.467 20.1023 201.99 19.9659 201.376 19.9659C200.711 19.9659 200.136 20.1108 199.65 20.4006C199.173 20.6903 198.845 21.142 198.666 21.7557H192.172C192.444 20.5625 193.002 19.4631 193.846 18.4574C194.699 17.4432 195.828 16.6335 197.234 16.0284C198.649 15.4148 200.336 15.108 202.297 15.108C203.694 15.108 204.922 15.2741 205.978 15.6065C207.035 15.9304 207.909 16.3864 208.599 16.9744C209.298 17.554 209.788 18.2358 210.069 19.0199C210.359 19.7955 210.427 20.6392 210.274 21.5511L208.024 35H201.427L201.887 32.2386H201.734C201.223 32.9716 200.647 33.5639 200.008 34.0156C199.377 34.4673 198.687 34.7955 197.937 35C197.196 35.2045 196.399 35.3068 195.547 35.3068ZM198.615 30.858C199.143 30.858 199.663 30.7472 200.174 30.5256C200.686 30.304 201.125 29.9844 201.491 29.5668C201.858 29.1491 202.092 28.642 202.194 28.0455L202.45 26.4091C202.262 26.4858 202.054 26.5582 201.824 26.6264C201.602 26.6861 201.368 26.7457 201.12 26.8054C200.882 26.8651 200.626 26.9205 200.353 26.9716C200.089 27.0227 199.816 27.0739 199.535 27.125C198.973 27.2102 198.5 27.3509 198.116 27.5469C197.733 27.7344 197.434 27.9688 197.221 28.25C197.008 28.5227 196.876 28.8295 196.825 29.1705C196.748 29.7074 196.872 30.125 197.196 30.4233C197.528 30.7131 198.001 30.858 198.615 30.858ZM231.492 21.7557H225.151C225.185 21.3466 225.113 20.9972 224.934 20.7074C224.755 20.4176 224.504 20.196 224.18 20.0426C223.864 19.8892 223.506 19.8125 223.106 19.8125C222.407 19.8125 221.772 19.9702 221.201 20.2855C220.63 20.5923 220.31 20.9972 220.242 21.5C220.2 21.696 220.263 21.8793 220.434 22.0497C220.604 22.2202 221.052 22.3778 221.776 22.5227L225.663 23.2386C227.606 23.5966 229.021 24.2486 229.907 25.1946C230.802 26.1321 231.126 27.3722 230.879 28.9148C230.648 30.2528 230.06 31.4034 229.114 32.3665C228.168 33.3295 226.967 34.071 225.509 34.5909C224.06 35.1023 222.458 35.358 220.702 35.358C217.609 35.358 215.29 34.7401 213.748 33.5043C212.214 32.2685 211.515 30.6534 211.651 28.6591H218.504C218.521 29.2983 218.734 29.7798 219.143 30.1037C219.56 30.419 220.114 30.5852 220.805 30.6023C221.555 30.6278 222.211 30.4787 222.773 30.1548C223.336 29.8224 223.651 29.4091 223.719 28.9148C223.745 28.6335 223.621 28.4205 223.349 28.2756C223.085 28.1307 222.577 27.9858 221.827 27.8409L218.452 27.2273C216.509 26.8778 215.094 26.179 214.208 25.1307C213.322 24.0739 213.015 22.7273 213.288 21.0909C213.509 19.7869 214.038 18.6918 214.873 17.8054C215.717 16.919 216.825 16.25 218.197 15.7983C219.569 15.3381 221.154 15.108 222.952 15.108C225.893 15.108 228.117 15.7003 229.626 16.8849C231.143 18.0611 231.765 19.6847 231.492 21.7557ZM241.509 23.9545L239.668 35H232.611L236.957 8.81818H243.759L242.071 19.0966H242.276C242.915 17.8437 243.81 16.8679 244.96 16.169C246.111 15.4616 247.415 15.108 248.872 15.108C250.253 15.108 251.403 15.4233 252.324 16.054C253.244 16.6847 253.896 17.554 254.28 18.6619C254.663 19.7699 254.736 21.0398 254.497 22.4716L252.401 35H245.344L247.185 23.9545C247.338 22.983 247.214 22.2202 246.814 21.6662C246.422 21.1122 245.778 20.8352 244.884 20.8352C244.304 20.8352 243.776 20.9631 243.298 21.2188C242.83 21.4659 242.438 21.8239 242.122 22.2926C241.815 22.7528 241.611 23.3068 241.509 23.9545Z" fill="white"/>
<defs>
<linearGradient id="paint0_linear_3_56" x1="40.0398" y1="31.8062" x2="0.600477" y2="3.42188" gradientUnits="userSpaceOnUse">
<stop stop-color="#29D278"/>
<stop offset="0.41656" stop-color="#28B3CF"/>
<stop offset="1" stop-color="#2444F3"/>
</linearGradient>
</defs>
</svg>
